<?xml version="1.0" encoding="UTF-8" standalone="no"?>
<!-- Created with Inkscape (http://www.inkscape.org/) -->

<svg
   xmlns:dc="http://purl.org/dc/elements/1.1/"
   xmlns:cc="http://creativecommons.org/ns#"
   xmlns:rdf="http://www.w3.org/1999/02/22-rdf-syntax-ns#"
   xmlns:svg="http://www.w3.org/2000/svg"
   xmlns="http://www.w3.org/2000/svg"
   xmlns:sodipodi="http://sodipodi.sourceforge.net/DTD/sodipodi-0.dtd"
   xmlns:inkscape="http://www.inkscape.org/namespaces/inkscape"
   width="110.06756mm"
   height="139.43694mm"
   viewBox="0 0 110.06756 139.43694"
   version="1.1"
   id="svg8"
   sodipodi:docname="logo.svg"
   inkscape:version="0.92.5 (2060ec1f9f, 2020-04-08)">
  <defs
     id="defs2" />
  <sodipodi:namedview
     id="base"
     pagecolor="#ffffff"
     bordercolor="#666666"
     borderopacity="1.0"
     inkscape:pageopacity="0.0"
     inkscape:pageshadow="2"
     inkscape:zoom="0.49497475"
     inkscape:cx="-99.167322"
     inkscape:cy="181.4632"
     inkscape:document-units="mm"
     inkscape:current-layer="layer1"
     showgrid="false"
     inkscape:window-width="1300"
     inkscape:window-height="709"
     inkscape:window-x="66"
     inkscape:window-y="27"
     inkscape:window-maximized="1" />
  <metadata
     id="metadata5">
    <rdf:RDF>
      <cc:Work
         rdf:about="">
        <dc:format>image/svg+xml</dc:format>
        <dc:type
           rdf:resource="http://purl.org/dc/dcmitype/StillImage" />
        <dc:title />
      </cc:Work>
    </rdf:RDF>
  </metadata>
  <g
     inkscape:label="Layer 1"
     inkscape:groupmode="layer"
     id="layer1"
     transform="translate(-74.878695,10.555434)">
    <path
       style="fill:#d4943c;fill-opacity:1;stroke-width:1.05451131"
       d="m 166.72128,-0.51970223 c 1.44995,1.72317173 0.96239,6.78560723 0.96604,7.46608483 0.003,0.6804775 1.30864,1.9812829 2.89992,2.890678 3.72389,2.1281564 6.40592,10.3474264 4.6407,14.2217014 -1.04363,2.290495 -0.88522,2.622699 1.54102,3.231648 2.75115,0.690494 2.95919,2.217959 0.95236,6.992363 -0.59518,1.415967 -0.26334,1.845396 1.42606,1.845396 1.54386,0 2.39286,0.86651 2.84133,2.899906 0.35178,1.594948 0.7737,3.374436 0.93762,3.954418 0.16392,0.579981 -0.37358,2.706043 -1.19443,4.72458 -1.21749,2.993887 -1.24083,3.868172 -0.12668,4.745301 1.41903,1.117115 2.03938,4.103445 1.97494,9.507212 -0.0206,1.737682 0.38681,4.696818 0.90565,6.57586 0.85347,3.091011 0.67559,3.544327 -1.86749,4.759057 -2.55642,1.221106 -2.83976,1.959206 -3.13078,8.155769 -0.17599,3.747235 0.0176,6.475558 0.43023,6.062948 1.11354,-1.113526 3.58053,1.309292 3.58053,3.516441 0,2.603691 -1.63766,3.423109 -4.15198,2.077492 -1.72122,-0.921172 -2.30915,-0.698923 -3.35797,1.269377 -1.15963,2.176268 -1.11494,2.25696 0.50847,0.91765 0.97894,-0.807625 2.06549,-1.182803 2.41457,-0.833738 0.34906,0.349079 -1.08599,1.649896 -3.18902,2.890711 -4.12764,2.435379 -4.16605,2.524195 -3.92996,9.087607 0.21938,6.09853 -2.58705,8.16768 -8.32983,6.1415 -3.41433,-1.20463 -4.31746,-1.18343 -6.21544,0.14596 -1.22137,0.85548 -2.22064,2.15298 -2.22064,2.88336 0,1.36233 -6.95585,8.04306 -8.3743,8.04306 -0.43419,0 -1.64833,-0.94906 -2.69808,-2.10902 -2.18373,-2.41301 -4.74529,-2.78585 -4.74529,-0.6907 0,2.46302 -3.47781,4.74308 -5.79982,3.80237 -3.80069,-1.53975 -6.5928,-1.04501 -9.11629,1.61541 -3.54379,3.73605 -5.96401,3.4458 -6.37094,-0.76403 -0.23819,-2.46416 -0.91923,-3.51036 -2.43946,-3.74748 -1.25536,-0.19581 -1.64475,0.014 -0.96202,0.51862 0.63086,0.46617 1.41686,1.91527 1.74668,3.22022 0.46221,1.82885 0.14741,2.37265 -1.37355,2.37265 -2.07111,0 -4.58286,-3.44011 -3.38578,-4.63717 0.38304,-0.38304 0.79714,-1.38257 0.9202,-2.22121 0.19419,-1.323 -0.26881,-1.31896 -3.49858,0.0304 -4.78722,2.00027 -4.51933,2.1149 -4.51933,-1.9339 0,-3.6447 -2.94671,-9.07776 -3.25494,-6.00136 -0.0872,0.86997 -0.0897,2.13916 -0.005,2.82039 0.0841,0.68124 -0.3342,1.53967 -0.92957,1.90763 -0.595337,0.36795 -1.082454,0.13847 -1.082454,-0.50998 0,-0.65124 -0.590027,-0.83397 -1.318131,-0.40821 -0.724982,0.42391 -0.487717,-0.17862 0.52725,-1.33894 2.270155,-2.5953 2.330965,-3.5254 0.230534,-3.5254 -0.888177,0 -1.892659,-0.72391 -2.232169,-1.60868 -0.462136,-1.20429 -0.968349,-1.31735 -2.013757,-0.44974 -1.864404,1.54732 -6.827777,-6.19263 -7.583296,-11.825465 -0.481874,-3.592639 -0.29195,-4.042815 1.705617,-4.042815 2.89489,0 2.924909,-2.737033 0.04901,-4.47275 -2.700513,-1.629773 -6.448854,-8.827324 -8.738671,-16.779745 -1.89767,-6.590543 -2.314212,-17.764398 -0.662216,-17.764398 1.941721,0 1.081692,-2.759574 -1.581762,-5.075417 -2.664465,-2.316727 -3.554663,-5.469696 -1.544291,-5.469696 0.600595,0 2.007313,-2.135386 3.126053,-4.745302 1.11874,-2.609916 2.578287,-4.745302 3.243424,-4.745302 0.811133,0 0.981208,-1.216095 0.516479,-3.69327 -0.907548,-4.837622 2.466473,-12.697777 6.176127,-14.38801 2.137802,-0.974047 2.548283,-1.736682 2.035161,-3.781126 -0.425714,-1.696156 5.735725,-1.060773 8.403955,-8.4718909 3.157247,-5.25951953 8.119477,4.5417036 10.093777,-2.1920818 1.42155,-4.8485843 2.42309,-11.6697439 8.88092,-7.9629813 4.58455,2.631507 18.01381,-13.541934 27.13677,1.023979 4.30486,6.8732354 14.31278,7.6312524 21.13292,3.87205877 z"
       id="path3771"
       inkscape:connector-curvature="0"
       sodipodi:nodetypes="ccscssscscccccscscssccsccsscsscccccssccscccsccsccssccscssscsccsssc" />
    <path
       style="fill:#000000;stroke-width:1.02447295"
       d="m 133.99115,112.99871 c 0,-1.97369 -0.27661,-3.86513 -0.61469,-4.20321 -0.33807,-0.33808 -0.61468,0.36795 -0.61468,1.56896 0,2.56867 -2.80369,4.31777 -6.84784,4.2721 -2.75782,-0.0311 -2.79722,-0.0988 -0.89602,-1.53671 1.09375,-0.82727 1.43951,-1.50413 0.76836,-1.50413 -0.67116,0 -1.10503,-0.57626 -0.96416,-1.28059 0.28348,-1.4174 -2.51886,-1.55761 -6.30181,-0.3153 -1.95466,0.6419 -2.33942,0.49353 -1.87289,-0.72223 0.32294,-0.84155 0.0851,-2.03217 -0.52857,-2.64582 -0.80465,-0.80465 -0.63952,-1.29847 0.59229,-1.77116 3.23638,-1.2419 1.69646,-2.48531 -3.15823,-2.55009 -3.95811,-0.0529 -4.43551,-0.23805 -2.55814,-0.99259 1.26946,-0.5102 4.03554,-1.03138 6.14684,-1.15818 2.11131,-0.12679 4.11539,-0.632802 4.45353,-1.124462 0.33813,-0.49168 1.49066,-1.02569 2.56118,-1.18669 1.63675,-0.24618 1.89095,-1.0095 1.59789,-4.79814 -0.19167,-2.47796 -0.70113,-4.87655 -1.13214,-5.33019 -0.43101,-0.45364 -0.56854,1.33071 -0.30562,3.96522 0.37281,3.73573 0.17102,4.68482 -0.91681,4.31203 -0.76715,-0.2629 -2.66261,-0.12013 -4.21212,0.31727 -1.81017,0.51098 -2.8173,0.40447 -2.8173,-0.29795 0,-0.71805 -2.37313,-0.91468 -6.9152,-0.57299 -3.80335,0.28613 -6.34304,0.3122 -5.64375,0.058 0.97219,-0.35349 0.92913,-0.80462 -0.18294,-1.91669 -0.79991,-0.79995 -1.94833,-1.45442 -2.55203,-1.45442 -2.710024,0 -0.70209,-2.08521 3.1068,-3.22639 3.87635,-1.16138 4.0211,-1.3275 1.85488,-2.12884 -1.29226,-0.47804 -3.64528,-0.58458 -5.22892,-0.23675 -3.028804,0.66523 -3.715604,-0.3333 -1.649994,-2.39891 0.956174,-0.95618 0.72851,-1.22937 -1.02447,-1.22937 -3.044137,0 -2.851247,-1.82068 0.34728,-3.27803 3.182684,-1.45012 2.933774,-4.5143 -0.33805,-4.16148 -2.702597,0.29144 -2.846221,-0.4628 -0.56758,-2.98067 1.59423,-1.76161 1.55952,-1.8735 -0.58128,-1.8735 -1.863914,0 -2.14992,-0.39963 -1.577263,-2.20392 0.541713,-1.70677 0.348783,-2.06933 -0.855279,-1.60729 -2.269316,0.87082 -2.741011,-0.0915 -1.620444,-3.30598 1.164373,-3.34012 4.543486,-5.09907 11.34284,-5.90435 3.96716,-0.46985 4.91408,-0.96231 4.91408,-2.5556 0,-2.39077 1.6391,-5.71576 4.21715,-8.55467 1.86877,-2.05786 1.86416,-2.19734 -0.20334,-6.14683 -1.71427,-3.274752 -2.02964,-5.357722 -1.66284,-10.982782 0.29021,-4.45043 1.05255,-7.60446 2.12426,-8.78869 0.91939,-1.0159 1.67161,-3.27363 1.67161,-5.01717 0,-2.17401 0.99055,-4.160609 3.15258,-6.3226295 3.20737,-3.20738 4.60248,-3.75936 11.484,-4.54365 3.99186,-0.45496 11.22181,1.18847 10.48355,2.383 -0.47162,0.7631 -5.53518,0.5426 -9.31287,-0.40554 -1.72697,-0.43344 -2.7171,-0.15915 -3.10863,0.86117 -0.31599,0.82345 -1.1684,1.26929 -1.89424,0.99076 -0.72585,-0.27854 -1.60647,0.24081 -1.95693,1.15409 -0.35046,0.9132905 -1.10147,1.3735905 -1.66891,1.0228905 -0.56744,-0.3507 -1.03171,0.0352 -1.03171,0.85758 0,1.06943 0.95444,1.406509 3.35168,1.183709 1.84342,-0.171319 4.2366,0.33557 5.31817,1.12643 1.85776,1.35843 1.79988,1.44686 -1.04662,1.59933 -1.65721,0.0888 -3.58937,0.13999 -4.29369,0.11383 -0.70433,-0.0262 -1.28059,0.36223 -1.28059,0.86308 0,0.50085 -0.91325,0.91064 -2.02943,0.91064 -1.38707,0 -2.21727,0.89174 -2.62289,2.8173 -1.1425,5.42373 -1.2675,5.90395 -2.00013,7.68355 -0.62337,1.51419 -0.15877,1.79283 2.98934,1.79283 2.38779,0 3.94188,0.5589 4.32416,1.55511 0.79304,2.06662 -1.74257,8.206002 -2.72957,6.609012 -0.91713,-1.483952 -4.27087,-0.930772 -4.84697,0.79948 -0.23442,0.70403 0.4189,1.54696 1.45181,1.87319 1.03291,0.32622 3.10645,1.2513 4.60786,2.05574 2.14156,1.14741 2.83148,1.18529 3.20148,0.17576 0.37736,-1.02962 0.74297,-1.03087 1.82906,-0.006 1.12344,1.05985 1.10137,1.28451 -0.12806,1.30337 -0.81701,0.0125 -2.63801,0.92429 -4.04666,2.02615 l -2.56119,2.00339 3.07342,0.0368 c 4.19419,0.0502 7.68355,1.07028 7.68355,2.24626 0,0.53571 -0.92203,0.68138 -2.04895,0.32371 -1.12692,-0.35767 -3.08622,-0.3074 -4.35401,0.11171 l -2.30506,0.76203 2.48523,0.61586 c 3.15998,0.78307 4.04821,3.12053 1.1858,3.12053 -1.17388,0 -2.13432,0.38311 -2.13432,0.85136 0,1.41591 4.87202,3.56181 6.58996,2.90258 2.07339,-0.79564 2.03093,-0.49367 -0.54432,3.87105 -1.18258,2.00432 -2.79612,3.64421 -3.58565,3.64421 -0.78954,0 -1.43552,0.51478 -1.43552,1.14396 0,0.63244 -0.89934,0.90878 -2.01128,0.618 -1.1062,-0.28928 -2.49114,0.0522 -3.07763,0.75892 -0.8317,1.00214 1.01986,1.56133 8.41423,2.54118 5.21433,0.69096 10.45992,1.48364 11.65687,1.76151 1.83828,0.42675 2.30101,-0.10368 2.97937,-3.41529 0.4417,-2.15628 0.69183,-6.9662 0.55585,-10.6887 -0.30573,-8.36958 1.55551,-15.25798 4.12269,-15.25798 1.00448,0 2.11125,-0.46101 2.45948,-1.02447 0.34824,-0.56346 0.0885,-1.02448 -0.57721,-1.02448 -0.85376,0 -0.79611,-0.5107 0.19566,-1.73336 0.77331,-0.95335 0.89958,-1.43031 0.28058,-1.0599 -3.08915,1.84856 -8.17019,-9.169972 -5.89901,-12.792352 0.45457,-0.725 0.68512,-2.17592 0.51235,-3.22425 -0.20154,-1.2229 0.17481,-1.73652 1.05005,-1.43302 0.75029,0.26017 1.32756,1.46365 1.28282,2.67441 -0.0447,1.21076 0.25104,2.20138 0.6573,2.20138 1.30163,0 2.11199,5.27193 1.01376,6.59521 -1.27906,1.54117 -0.38443,2.62505 2.16669,2.62505 1.03301,0 1.8782,0.46101 1.8782,1.02447 0,0.56346 0.44654,1.024472 0.99232,1.024472 0.54577,0 0.72696,-0.691522 0.40263,-1.536712 -0.32434,-0.84519 -0.0794,-1.53671 0.54438,-1.53671 0.62375,0 1.13409,0.40472 1.13409,0.89936 0,2.218122 -3.51051,9.095162 -5.98602,11.726532 -2.52075,2.67948 -2.59158,2.98925 -0.95799,4.18977 1.42063,1.04401 1.64658,2.28787 1.16075,6.38995 -0.70804,5.97829 0.6395,7.91659 6.62406,9.52807 4.71411,1.26938 12.0134,8.38026 11.08521,10.79908 -0.35329,0.92066 -1.10661,1.38698 -1.67405,1.03629 -0.56744,-0.3507 -1.03171,-0.13953 -1.03171,0.46926 0,0.6088 -1.15253,1.63203 -2.56118,2.27385 -1.40865,0.64183 -2.56118,1.78448 -2.56118,2.53922 0,0.75475 -1.03728,1.38693 -2.30507,1.40485 -1.26778,0.0179 -3.14365,0.66828 -4.1686,1.44523 -1.78894,1.35612 -1.78218,1.43847 0.169,2.05775 1.11789,0.35481 3.14323,0.36633 4.50073,0.0256 1.60453,-0.40271 2.93361,-0.0587 3.79823,0.98309 1.14268,1.37686 0.98768,1.60474 -1.1005,1.618 -2.91501,0.0184 -9.77198,2.30613 -11.20362,3.73777 -0.68202,0.68202 0.0129,0.8716 2.08186,0.56794 3.94131,-0.57845 4.1424,1.48056 0.2883,2.95206 -2.60536,0.994732 -2.68089,1.175852 -1.00397,2.407642 1.6309,1.19799 1.3461,1.4858 -2.831,2.86096 -4.23137,1.39302 -4.62033,1.38165 -4.37451,-0.12793 0.1484,-0.9113 0.67557,-1.9517 1.17148,-2.31199 0.50857,-0.36949 0.53065,-2.825992 0.0506,-5.634602 -0.71809,-4.20171 -0.91226,-4.51155 -1.24306,-1.98362 -0.29398,2.24654 -0.62304,2.63091 -1.31555,1.53671 -0.70401,-1.11238 -0.92723,-0.89698 -0.93919,0.90634 -0.009,1.30104 0.41347,2.10029 0.938,1.77612 0.52452,-0.32418 1.28727,-0.0497 1.69499,0.61006 0.46299,0.749122 0.29724,0.925022 -0.44144,0.46848 -1.22252,-0.75555 -1.3626,-0.29263 -1.57152,5.193502 -0.0679,1.7833 -0.46924,3.58893 -0.89184,4.01251 -0.42259,0.42359 -0.76835,1.52996 -0.76835,2.4586 0,0.92866 -1.56744,2.43592 -3.48321,3.34949 l -3.48321,1.66103 v -3.58853 z m -11.2449,-8.50162 c -0.31348,-2.13585 -0.87765,-2.83296 -1.95741,-2.41861 -0.83435,0.32017 -1.09896,0.86372 -0.58802,1.20791 0.51094,0.34418 1.22664,1.43256 1.59045,2.41861 1.00178,2.71516 1.44794,2.15084 0.95498,-1.20791 z m 13.16578,-3.42783 c -0.0423,-0.40851 -0.11323,-4.315592 -0.15771,-8.682402 -0.0445,-4.36682 -0.31437,-7.36053 -0.59974,-6.6527 -0.28537,0.70784 -1.01246,0.98192 -1.61575,0.60906 -0.74192,-0.45853 -0.87937,0.40969 -0.42473,2.68286 0.36968,1.84843 0.67215,5.64663 0.67215,8.44045 0,3.167392 0.4146,4.941482 1.10131,4.712582 0.60572,-0.20191 1.06673,-0.70134 1.02447,-1.10985 z M 123.21689,82.718388 c -0.32704,-0.81725 -0.5698,-0.5745 -0.61896,0.61895 -0.0445,1.07997 0.19765,1.68505 0.53808,1.34462 0.34042,-0.34042 0.37682,-1.22403 0.0809,-1.96357 z m 13.8989,-2.53534 c -0.70433,-0.28421 -1.85686,-0.28421 -2.56118,0 -0.70433,0.2842 -0.12806,0.51673 1.28059,0.51673 1.40865,0 1.98491,-0.23253 1.28059,-0.51673 z m -7.17131,-1.02448 c -0.70433,-0.2842 -1.85686,-0.2842 -2.56118,0 -0.70433,0.2842 -0.12806,0.51673 1.28059,0.51673 1.40865,0 1.98491,-0.23253 1.28059,-0.51673 z m 11.52532,-0.34598 c 0.38405,-0.62142 -0.9021,-0.97679 -3.26908,-0.90326 -3.85488,0.11974 -3.86494,0.1307 -0.82881,0.90326 1.69038,0.43013 3.16146,0.8366 3.26907,0.90326 0.10761,0.0667 0.48058,-0.3398 0.82882,-0.90326 z m -14.85486,-1.47625 c 0,-0.24848 -0.46101,-0.7367 -1.02447,-1.08493 -0.56346,-0.34824 -1.02447,-0.14494 -1.02447,0.45177 0,0.59671 0.46101,1.08494 1.02447,1.08494 0.56346,0 1.02447,-0.2033 1.02447,-0.45178 z m 17.28536,30.843972 c 0.83431,-1.01286 2.89636,-1.70695 5.07115,-1.70695 4.75638,0 3.08524,1.87493 -2.46771,2.76863 -3.65537,0.5883 -3.88529,0.49454 -2.60344,-1.06168 z M 128.3228,33.340966 c -2.00877,-3.06577 -1.37014,-3.70308 3.71069,-3.70308 3.32648,0 3.84269,0.25291 2.88109,1.41158 -0.9248,1.11431 -0.68154,1.565 1.15515,2.14015 l 2.32665,0.72858 -2.56118,0.83114 c -4.34439,1.40983 -5.8509,1.1274 -7.5124,-1.40837 z"
       id="path3756"
       inkscape:connector-curvature="0"
       sodipodi:nodetypes="ccsccscccccccccccsccsscccscsccscccscccssssscscccccccssccccssccsccccccccsccssccssscsssccccssscscccsccscssscssccssscscsccccccscscccccscccccccssccccccsccccccsccccsccccscccsccccccscssscsscsscsccs" />
  </g>
</svg>
