<?xml version="1.0" encoding="UTF-8" standalone="no"?>
<!-- Generator: Adobe Illustrator 19.0.0, SVG Export Plug-In . SVG Version: 6.00 Build 0)  -->

<svg
   xmlns:dc="http://purl.org/dc/elements/1.1/"
   xmlns:cc="http://creativecommons.org/ns#"
   xmlns:rdf="http://www.w3.org/1999/02/22-rdf-syntax-ns#"
   xmlns:svg="http://www.w3.org/2000/svg"
   xmlns="http://www.w3.org/2000/svg"
   xmlns:sodipodi="http://sodipodi.sourceforge.net/DTD/sodipodi-0.dtd"
   xmlns:inkscape="http://www.inkscape.org/namespaces/inkscape"
   version="1.1"
   id="Capa_1"
   x="0px"
   y="0px"
   viewBox="0 0 477.827 477.827"
   style="enable-background:new 0 0 477.827 477.827;"
   xml:space="preserve"
   sodipodi:docname="upload.svg"
   inkscape:version="0.92.5 (2060ec1f9f, 2020-04-08)"><metadata
   id="metadata49"><rdf:RDF><cc:Work
       rdf:about=""><dc:format>image/svg+xml</dc:format><dc:type
         rdf:resource="http://purl.org/dc/dcmitype/StillImage" /><dc:title></dc:title></cc:Work></rdf:RDF></metadata><defs
   id="defs47" /><sodipodi:namedview
   pagecolor="#ffffff"
   bordercolor="#666666"
   borderopacity="1"
   objecttolerance="10"
   gridtolerance="10"
   guidetolerance="10"
   inkscape:pageopacity="0"
   inkscape:pageshadow="2"
   inkscape:window-width="1851"
   inkscape:window-height="1016"
   id="namedview45"
   showgrid="false"
   inkscape:zoom="0.93747769"
   inkscape:cx="96.197574"
   inkscape:cy="180.95858"
   inkscape:window-x="69"
   inkscape:window-y="27"
   inkscape:window-maximized="1"
   inkscape:current-layer="Capa_1" />
<g
   id="g6"
   style="fill:#1b466f;fill-opacity:1">
	<g
   id="g4"
   style="fill:#1b466f;fill-opacity:1">
		<path
   d="M441.537,160.632c1.489-7.981,2.243-16.082,2.253-24.201C443.699,61.026,382.498-0.028,307.093,0.062    c-57.402,0.069-108.63,36.034-128.194,89.999c-35.029-13.944-74.73,3.148-88.675,38.177c-1.207,3.032-2.195,6.146-2.956,9.319    c-55.932,8.365-94.492,60.488-86.127,116.42c7.502,50.163,50.596,87.275,101.316,87.254H238.99V211.764l-56.201,56.201    c-6.78,6.548-17.584,6.36-24.132-0.419c-6.388-6.614-6.388-17.099,0-23.713l85.333-85.333c1.589-1.593,3.481-2.852,5.564-3.703    c4.175-1.726,8.864-1.726,13.039,0c2.083,0.852,3.974,2.111,5.564,3.703l85.333,85.333c6.78,6.548,6.968,17.352,0.42,24.132    c-6.548,6.78-17.352,6.968-24.132,0.42c-0.142-0.138-0.282-0.277-0.42-0.42l-56.235-56.201v129.468h102.4    c56.554-0.053,102.357-45.943,102.303-102.497C477.798,208.632,464.526,180.066,441.537,160.632z"
   id="path2"
   style="fill:#1b466f;fill-opacity:1" />
	</g>
</g>
<g
   id="g12"
   style="fill:#1b466f;fill-opacity:1">
	<g
   id="g10"
   style="fill:#1b466f;fill-opacity:1">
		<path
   d="M238.99,341.231v119.467c0,9.426,7.641,17.067,17.067,17.067c9.426,0,17.067-7.641,17.067-17.067V341.231H238.99z"
   id="path8"
   style="fill:#1b466f;fill-opacity:1" />
	</g>
</g>
<g
   id="g14">
</g>
<g
   id="g16">
</g>
<g
   id="g18">
</g>
<g
   id="g20">
</g>
<g
   id="g22">
</g>
<g
   id="g24">
</g>
<g
   id="g26">
</g>
<g
   id="g28">
</g>
<g
   id="g30">
</g>
<g
   id="g32">
</g>
<g
   id="g34">
</g>
<g
   id="g36">
</g>
<g
   id="g38">
</g>
<g
   id="g40">
</g>
<g
   id="g42">
</g>
</svg>